<svg height="512pt" viewBox="0 -50 512.001 512" width="512pt" xmlns="http://www.w3.org/2000/svg"><path d="m147.207031 307.03125c-2.558593 0-5.117187-.976562-7.070312-2.929688l-22.460938-22.460937c-1.875-1.875-2.929687-4.417969-2.929687-7.070313 0-2.652343 1.054687-5.195312 2.929687-7.070312l22.460938-22.460938c3.90625-3.90625 10.234375-3.90625 14.140625 0s3.90625 10.238282 0 14.140626l-15.390625 15.390624 15.390625 15.390626c3.90625 3.90625 3.90625 10.238281 0 14.140624-1.953125 1.953126-4.511719 2.929688-7.070313 2.929688zm0 0"/><path d="m364.792969 307.03125c-2.558594 0-5.117188-.976562-7.070313-2.929688-3.90625-3.902343-3.90625-10.234374 0-14.140624l15.390625-15.390626-15.390625-15.390624c-3.90625-3.902344-3.90625-10.234376 0-14.140626s10.234375-3.90625 14.140625 0l22.464844 22.460938c1.875 1.875 2.929687 4.417969 2.929687 7.070312 0 2.652344-1.054687 5.195313-2.929687 7.070313l-22.464844 22.460937c-1.953125 1.953126-4.511719 2.929688-7.070312 2.929688zm0 0"/><path d="m348.242188 121.742188c-12.027344-12.027344-28.015626-18.648438-45.019532-18.648438h-14.3125c-2.796875 0-5.464844 1.171875-7.359375 3.230469-1.890625 2.058593-2.835937 4.816406-2.601562 7.601562.054687.652344.082031 1.3125.082031 1.957031 0 12.699219-10.332031 23.03125-23.03125 23.03125s-23.03125-10.332031-23.03125-23.03125c0-.644531.027344-1.304687.082031-1.957031.234375-2.785156-.710937-5.542969-2.605469-7.601562-1.890624-2.0625-4.5625-3.230469-7.359374-3.230469h-14.308594c-17.003906 0-32.992188 6.621094-45.019532 18.648438-12.023437 12.023437-18.648437 28.011718-18.648437 45.019531v41.929687c0 5.523438 4.480469 10 10 10h33.925781v55.878906c0 5.523438 4.480469 10 10 10h113.925782c5.523437 0 10-4.476562 10-10v-55.878906h33.925781c5.523437 0 10-4.476562 10-10v-41.933594c.003906-17.003906-6.621094-32.992187-18.644531-45.015624zm-1.351563 76.949218h-23.929687v-9.816406c0-5.523438-4.476563-10-10-10-5.519532 0-10 4.476562-10 10v75.695312h-93.921876v-75.695312c0-5.523438-4.480468-10-10-10-5.523437 0-10 4.476562-10 10v9.816406h-23.929687v-31.933594c0-11.664062 4.542969-22.628906 12.792969-30.875 8.246094-8.25 19.210937-12.792968 30.875-12.792968h4.796875c3.4375 20.308594 21.15625 35.824218 42.425781 35.824218s38.984375-15.515624 42.425781-35.824218h4.796875c11.664063 0 22.628906 4.542968 30.875 12.792968 8.25 8.246094 12.792969 19.210938 12.792969 30.875zm0 0"/><path d="m255.820312 352.730469c-4.179687 0-8.007812-2.710938-9.414062-6.636719-1.394531-3.882812-.191406-8.320312 2.945312-10.988281 3.277344-2.785157 8.082032-3.117188 11.742188-.871094 3.5 2.152344 5.335938 6.425781 4.527344 10.445313-.929688 4.609374-5.085938 8.050781-9.800782 8.050781zm0 0"/><path d="m502 332.726562h-8.5v-291.417968c0-22.777344-18.53125-41.308594-41.308594-41.308594h-392.382812c-22.777344 0-41.308594 18.53125-41.308594 41.308594v291.417968h-8.5c-5.523438 0-10 4.480469-10 10v28.726563c0 22.773437 18.53125 41.304687 41.308594 41.304687h429.382812c22.777344 0 41.308594-18.53125 41.308594-41.304687v-28.726563c0-5.519531-4.476562-10-10-10zm-463.5-291.417968c0-11.75 9.558594-21.308594 21.308594-21.308594h392.382812c11.75 0 21.308594 9.558594 21.308594 21.308594v291.417968h-25v-277.726562c0-5.523438-4.476562-10-10-10h-365c-5.519531 0-10 4.476562-10 10v277.726562h-25zm453.5 330.140625c0 11.75-9.558594 21.308593-21.308594 21.308593h-429.382812c-11.75 0-21.308594-9.558593-21.308594-21.308593v-18.722657h190.777344c5.519531 0 10-4.476562 10-10 0-5.523437-4.480469-10-10-10h-127.277344v-267.726562h345v267.726562h-127.277344c-5.519531 0-10 4.480469-10 10 0 5.523438 4.480469 10 10 10h190.777344zm0 0"/></svg>